<svg width="16" height="16" viewBox="0 0 16 16" fill="none" xmlns="http://www.w3.org/2000/svg">
    <path
        d="M7.05396 15.4805V0.675325H8.00242V15.4805H7.05396ZM10.0208 5.26725C9.9591 4.71976 9.70463 4.29566 9.25739 3.99493C8.81015 3.69034 8.24725 3.53805 7.56868 3.53805C7.08288 3.53805 6.66263 3.61516 6.30792 3.76938C5.95321 3.91974 5.67754 4.12794 5.48091 4.39397C5.28814 4.65615 5.19175 4.95495 5.19175 5.29038C5.19175 5.57183 5.25729 5.81473 5.38838 6.01907C5.52332 6.22342 5.69875 6.39499 5.91466 6.53379C6.13442 6.66873 6.36961 6.78247 6.62022 6.875C6.87083 6.96368 7.1118 7.03693 7.34313 7.09476L8.49978 7.3955C8.87763 7.48803 9.2651 7.61333 9.66222 7.77141C10.0593 7.92948 10.4275 8.13768 10.7668 8.396C11.1061 8.65432 11.3799 8.97433 11.5881 9.35603C11.8001 9.73772 11.9061 10.1946 11.9061 10.7267C11.9061 11.3975 11.7326 11.9932 11.3856 12.5137C11.0425 13.0342 10.5432 13.4448 9.88777 13.7455C9.23619 14.0463 8.44773 14.1966 7.52241 14.1966C6.63564 14.1966 5.86839 14.0559 5.22067 13.7745C4.57294 13.493 4.06594 13.094 3.69966 12.5773C3.33339 12.0568 3.13097 11.4399 3.09242 10.7267H4.88524C4.91993 11.1546 5.05873 11.5113 5.30163 11.7966C5.54838 12.078 5.86261 12.2881 6.24431 12.4269C6.62986 12.5619 7.05204 12.6294 7.51084 12.6294C8.01592 12.6294 8.46508 12.5503 8.85835 12.3922C9.25547 12.2303 9.56776 12.0067 9.79524 11.7214C10.0227 11.4322 10.1365 11.0949 10.1365 10.7093C10.1365 10.3585 10.0362 10.0712 9.83572 9.84761C9.63909 9.62399 9.37113 9.43892 9.03185 9.29241C8.69642 9.1459 8.31665 9.01674 7.89254 8.90493L6.49299 8.52323C5.54453 8.26491 4.7927 7.88515 4.23751 7.38393C3.68617 6.88271 3.4105 6.21956 3.4105 5.39448C3.4105 4.71205 3.59556 4.11638 3.96569 3.60745C4.33582 3.09852 4.83704 2.70333 5.46935 2.42188C6.10165 2.13657 6.81492 1.99391 7.60916 1.99391C8.41111 1.99391 9.1186 2.13464 9.73162 2.41609C10.3485 2.69755 10.8343 3.08502 11.189 3.57853C11.5437 4.06818 11.7288 4.63109 11.7442 5.26725H10.0208Z"
        fill="#828282" />
</svg>