<svg width="254" height="254" viewBox="0 0 254 254" fill="none" xmlns="http://www.w3.org/2000/svg">
<path d="M232.86 63.5234H21.6602V190.244H232.86V63.5234Z" fill="#2E2E2E"/>
<path d="M127.261 162.084C146.701 162.084 162.461 146.324 162.461 126.884C162.461 107.443 146.701 91.6836 127.261 91.6836C107.82 91.6836 92.0605 107.443 92.0605 126.884C92.0605 146.324 107.82 162.084 127.261 162.084Z" fill="white"/>
<path fill-rule="evenodd" clip-rule="evenodd" d="M232.86 98.7235C213.42 98.7235 197.66 82.9637 197.66 63.5234H232.86V98.7235Z" fill="#D4D5F9"/>
<path fill-rule="evenodd" clip-rule="evenodd" d="M21.6602 98.7238V63.5234H56.8598C56.8598 82.9637 41.1004 98.7238 21.6602 98.7238Z" fill="#D4D5F9"/>
<path fill-rule="evenodd" clip-rule="evenodd" d="M56.8604 190.243H21.6602V155.043C21.6601 155.043 21.6602 155.043 21.6602 155.043C41.1004 155.043 56.8604 170.802 56.8604 190.243Z" fill="#D4D5F9"/>
<path fill-rule="evenodd" clip-rule="evenodd" d="M232.86 155.043V190.243H197.66C197.66 170.803 213.42 155.043 232.86 155.043Z" fill="#D4D5F9"/>
</svg>
