<svg width="31" height="32" viewBox="0 0 31 32" fill="none" xmlns="http://www.w3.org/2000/svg">
    <rect y="0.5" width="31" height="31" rx="15.5" fill="#F9F4D4" />
    <path
        d="M23 12C22.1667 12 21.4583 11.7083 20.875 11.125C20.2917 10.5417 20 9.83333 20 9C20 8.16667 20.2917 7.45833 20.875 6.875C21.4583 6.29167 22.1667 6 23 6C23.8333 6 24.5417 6.29167 25.125 6.875C25.7083 7.45833 26 8.16667 26 9C26 9.83333 25.7083 10.5417 25.125 11.125C24.5417 11.7083 23.8333 12 23 12ZM8 24C7.45 24 6.979 23.804 6.587 23.412C6.195 23.02 5.99934 22.5493 6 22V10C6 9.45 6.196 8.979 6.588 8.587C6.98 8.195 7.45067 7.99933 8 8H18.1C18.0333 8.33333 18 8.66667 18 9C18 9.33333 18.0333 9.66667 18.1 10C18.2167 10.5333 18.4083 11.0293 18.675 11.488C18.9417 11.9467 19.2667 12.3507 19.65 12.7L16 15L8 10V12L16 17L21.275 13.7C21.5583 13.8 21.8417 13.875 22.125 13.925C22.4083 13.975 22.7 14 23 14C23.5333 14 24.0583 13.9167 24.575 13.75C25.0917 13.5833 25.5667 13.3333 26 13V22C26 22.55 25.804 23.021 25.412 23.413C25.02 23.805 24.5493 24.0007 24 24H8Z"
        fill="black" />
</svg>