<svg width="20" height="21" viewBox="0 0 20 21" fill="none" xmlns="http://www.w3.org/2000/svg">
<path d="M14.998 3.58561H14.1647V2.75228C14.1647 2.53126 14.0769 2.3193 13.9206 2.16302C13.7644 2.00674 13.5524 1.91895 13.3314 1.91895C13.1104 1.91895 12.8984 2.00674 12.7421 2.16302C12.5858 2.3193 12.498 2.53126 12.498 2.75228V3.58561H7.49805V2.75228C7.49805 2.53126 7.41025 2.3193 7.25397 2.16302C7.09769 2.00674 6.88573 1.91895 6.66471 1.91895C6.4437 1.91895 6.23174 2.00674 6.07546 2.16302C5.91918 2.3193 5.83138 2.53126 5.83138 2.75228V3.58561H4.99805C4.33501 3.58561 3.69912 3.849 3.23028 4.31785C2.76144 4.78669 2.49805 5.42257 2.49805 6.08561V16.0856C2.49805 16.7487 2.76144 17.3845 3.23028 17.8534C3.69912 18.3222 4.33501 18.5856 4.99805 18.5856H14.998C15.6611 18.5856 16.297 18.3222 16.7658 17.8534C17.2347 17.3845 17.498 16.7487 17.498 16.0856V6.08561C17.498 5.42257 17.2347 4.78669 16.7658 4.31785C16.297 3.849 15.6611 3.58561 14.998 3.58561ZM6.66471 14.4189C6.4999 14.4189 6.33878 14.3701 6.20174 14.2785C6.0647 14.1869 5.95789 14.0568 5.89481 13.9045C5.83174 13.7522 5.81524 13.5847 5.84739 13.423C5.87955 13.2614 5.95891 13.1129 6.07546 12.9964C6.192 12.8798 6.34049 12.8004 6.50214 12.7683C6.66379 12.7361 6.83134 12.7526 6.98362 12.8157C7.13589 12.8788 7.26604 12.9856 7.3576 13.1226C7.44917 13.2597 7.49805 13.4208 7.49805 13.5856C7.49805 13.8066 7.41025 14.0186 7.25397 14.1749C7.09769 14.3311 6.88573 14.4189 6.66471 14.4189ZM13.3314 14.4189H9.99805C9.77703 14.4189 9.56507 14.3311 9.40879 14.1749C9.25251 14.0186 9.16471 13.8066 9.16471 13.5856C9.16471 13.3646 9.25251 13.1526 9.40879 12.9964C9.56507 12.8401 9.77703 12.7523 9.99805 12.7523H13.3314C13.5524 12.7523 13.7644 12.8401 13.9206 12.9964C14.0769 13.1526 14.1647 13.3646 14.1647 13.5856C14.1647 13.8066 14.0769 14.0186 13.9206 14.1749C13.7644 14.3311 13.5524 14.4189 13.3314 14.4189ZM15.8314 9.41895H4.16471V6.08561C4.16471 5.8646 4.25251 5.65264 4.40879 5.49636C4.56507 5.34008 4.77703 5.25228 4.99805 5.25228H5.83138V6.08561C5.83138 6.30663 5.91918 6.51859 6.07546 6.67487C6.23174 6.83115 6.4437 6.91895 6.66471 6.91895C6.88573 6.91895 7.09769 6.83115 7.25397 6.67487C7.41025 6.51859 7.49805 6.30663 7.49805 6.08561V5.25228H12.498V6.08561C12.498 6.30663 12.5858 6.51859 12.7421 6.67487C12.8984 6.83115 13.1104 6.91895 13.3314 6.91895C13.5524 6.91895 13.7644 6.83115 13.9206 6.67487C14.0769 6.51859 14.1647 6.30663 14.1647 6.08561V5.25228H14.998C15.2191 5.25228 15.431 5.34008 15.5873 5.49636C15.7436 5.65264 15.8314 5.8646 15.8314 6.08561V9.41895Z" fill="#454545"/>
</svg>
