<svg width="21" height="20" viewBox="0 0 21 20" fill="none" xmlns="http://www.w3.org/2000/svg">
    <g clip-path="url(#clip0_136_47626)">
        <path
            d="M17.7298 3.33317H15.2298V2.49984C15.2298 2.27882 15.142 2.06686 14.9857 1.91058C14.8295 1.7543 14.6175 1.6665 14.3965 1.6665H6.06315C5.84214 1.6665 5.63018 1.7543 5.4739 1.91058C5.31762 2.06686 5.22982 2.27882 5.22982 2.49984V3.33317H2.72982C2.5088 3.33317 2.29684 3.42097 2.14056 3.57725C1.98428 3.73353 1.89648 3.94549 1.89648 4.1665V6.6665C1.89648 10.2582 3.39565 12.4248 5.91232 12.5098C6.28074 13.143 6.78377 13.6875 7.38584 14.1048C7.9879 14.5221 8.6743 14.8021 9.39648 14.9248V16.6665H7.72982V18.3332H12.7298V16.6665H11.0632V14.9248C11.7852 14.8016 12.4714 14.5214 13.0734 14.1042C13.6753 13.6869 14.1785 13.1427 14.5473 12.5098C17.064 12.4248 18.5632 10.2582 18.5632 6.6665V4.1665C18.5632 3.94549 18.4754 3.73353 18.3191 3.57725C18.1628 3.42097 17.9508 3.33317 17.7298 3.33317ZM3.56315 6.6665V4.99984H5.22982V10.6915C3.74315 10.0648 3.56315 7.749 3.56315 6.6665ZM10.2298 13.3332C8.39148 13.3332 6.89648 11.8382 6.89648 9.99984V3.33317H13.5632V9.99984C13.5632 11.8382 12.0682 13.3332 10.2298 13.3332ZM15.2298 10.6915V4.99984H16.8965V6.6665C16.8965 7.749 16.7165 10.0648 15.2298 10.6915Z"
            fill="#828282" />
    </g>
    <defs>
        <clipPath id="clip0_136_47626">
            <rect width="20" height="20" fill="white" transform="translate(0.229492)" />
        </clipPath>
    </defs>
</svg>